# xmcd
# Track frame offsets:
# 150
# 13701
# 32496
# 45564
# 58615
# 70255
# 90844
# 100929
# 117762
# 129243
#
# Disc length: 1875 seconds
# Revision: 0
# Processed by: cddbd v1.5.1PL0 Copyright (c) Steve Scherf et al.
# Submitted via: VisiTrax 2.9.10.220 - For more info visit www.synapsa.com
#
DISCID=7207510a
DTITLE=Charity Mauldin - Willing Heart
DYEAR=2000
DGENRE=
TTITLE0=Opryland Music - Wiling Heart
TTITLE1=Randy Owen - Lady Down on Love
TTITLE2=Nadine Lasosky - Dick Tracy
TTITLE3=Bobby Knight - Lonesome Town
TTITLE4=Nadine Lasosky - More Than
TTITLE5=Sonytree - Light That Makes Me Shine
TTITLE6=Charlie Barrett - Speakin' Of a Fall
TTITLE7=Tommy Riggs - Love's Last Stand
TTITLE8=Charlie Barrett - Why Did You Stop Lovin' Me
TTITLE9=Co-Heart Music - Wrong Mr. Right
EXTD=
EXTT0=
EXTT1=
EXTT2=
EXTT3=
EXTT4=
EXTT5=
EXTT6=
EXTT7=
EXTT8=
EXTT9=
PLAYORDER=
